<mxfile host="app.diagrams.net" modified="2024-05-13T06:09:38.314Z" agent="Mozilla/5.0 (Windows NT 10.0; Win64; x64) AppleWebKit/537.36 (KHTML, like Gecko) Chrome/123.0.0.0 Safari/537.36 OPR/109.0.0.0" etag="PikKCTnww7XKTTI1OHEX" version="24.4.0" type="device" pages="2">
  <diagram name="Page-1" id="lXUMzfUiRA4xkr5zRLhg">
    <mxGraphModel dx="1517" dy="792" grid="1" gridSize="10" guides="1" tooltips="1" connect="1" arrows="1" fold="1" page="1" pageScale="1" pageWidth="850" pageHeight="1100" background="#FFFFFF" math="0" shadow="0">
      <root>
        <mxCell id="0" />
        <mxCell id="1" parent="0" />
        <mxCell id="qCpFgLmrSbBWOsIdEgnN-120" value="" style="rounded=1;whiteSpace=wrap;html=1;" vertex="1" parent="1">
          <mxGeometry x="336" y="125" width="130" height="80" as="geometry" />
        </mxCell>
        <mxCell id="qCpFgLmrSbBWOsIdEgnN-121" value="Admin" style="rounded=0;whiteSpace=wrap;html=1;" vertex="1" parent="1">
          <mxGeometry x="36" y="140" width="120" height="50" as="geometry" />
        </mxCell>
        <mxCell id="qCpFgLmrSbBWOsIdEgnN-122" value="" style="endArrow=none;html=1;rounded=0;exitX=0;exitY=0.25;exitDx=0;exitDy=0;entryX=1;entryY=0.25;entryDx=0;entryDy=0;" edge="1" parent="1" source="qCpFgLmrSbBWOsIdEgnN-120" target="qCpFgLmrSbBWOsIdEgnN-120">
          <mxGeometry width="50" height="50" relative="1" as="geometry">
            <mxPoint x="376" y="220" as="sourcePoint" />
            <mxPoint x="426" y="170" as="targetPoint" />
          </mxGeometry>
        </mxCell>
        <mxCell id="qCpFgLmrSbBWOsIdEgnN-123" value="1.0" style="text;html=1;align=center;verticalAlign=middle;whiteSpace=wrap;rounded=0;" vertex="1" parent="1">
          <mxGeometry x="381" y="125" width="40" height="20" as="geometry" />
        </mxCell>
        <mxCell id="qCpFgLmrSbBWOsIdEgnN-124" value="" style="endArrow=classic;html=1;rounded=0;exitX=1;exitY=0.5;exitDx=0;exitDy=0;entryX=0;entryY=0.5;entryDx=0;entryDy=0;" edge="1" parent="1" source="qCpFgLmrSbBWOsIdEgnN-121" target="qCpFgLmrSbBWOsIdEgnN-120">
          <mxGeometry width="50" height="50" relative="1" as="geometry">
            <mxPoint x="456" y="270" as="sourcePoint" />
            <mxPoint x="506" y="220" as="targetPoint" />
          </mxGeometry>
        </mxCell>
        <mxCell id="qCpFgLmrSbBWOsIdEgnN-125" value="Input PDL Information" style="text;html=1;align=center;verticalAlign=middle;whiteSpace=wrap;rounded=0;" vertex="1" parent="1">
          <mxGeometry x="156" y="135" width="160" height="30" as="geometry" />
        </mxCell>
        <mxCell id="qCpFgLmrSbBWOsIdEgnN-126" value="" style="html=1;dashed=0;whiteSpace=wrap;shape=mxgraph.dfd.dataStoreID;align=left;spacingLeft=3;points=[[0,0],[0.5,0],[1,0],[0,0.5],[1,0.5],[0,1],[0.5,1],[1,1]];" vertex="1" parent="1">
          <mxGeometry x="731" y="145" width="100" height="30" as="geometry" />
        </mxCell>
        <mxCell id="qCpFgLmrSbBWOsIdEgnN-127" value="&amp;nbsp;Receive Input PDL Information" style="text;html=1;align=center;verticalAlign=middle;whiteSpace=wrap;rounded=0;" vertex="1" parent="1">
          <mxGeometry x="336" y="160" width="130" height="30" as="geometry" />
        </mxCell>
        <mxCell id="qCpFgLmrSbBWOsIdEgnN-128" value="" style="endArrow=classic;html=1;rounded=0;exitX=1;exitY=0.438;exitDx=0;exitDy=0;entryX=0;entryY=0.5;entryDx=0;entryDy=0;exitPerimeter=0;" edge="1" parent="1" source="qCpFgLmrSbBWOsIdEgnN-120" target="qCpFgLmrSbBWOsIdEgnN-126">
          <mxGeometry width="50" height="50" relative="1" as="geometry">
            <mxPoint x="486" y="184.7" as="sourcePoint" />
            <mxPoint x="656" y="184.7" as="targetPoint" />
          </mxGeometry>
        </mxCell>
        <mxCell id="qCpFgLmrSbBWOsIdEgnN-129" value="PDL Information" style="text;html=1;align=center;verticalAlign=middle;whiteSpace=wrap;rounded=0;" vertex="1" parent="1">
          <mxGeometry x="526" y="129" width="130" height="30" as="geometry" />
        </mxCell>
        <mxCell id="0pxHtjlfeQTU2rFMeHyA-4" style="edgeStyle=orthogonalEdgeStyle;rounded=0;orthogonalLoop=1;jettySize=auto;html=1;entryX=1;entryY=0.5;entryDx=0;entryDy=0;exitX=0.596;exitY=1.027;exitDx=0;exitDy=0;exitPerimeter=0;" edge="1" parent="1" source="qCpFgLmrSbBWOsIdEgnN-126" target="qCpFgLmrSbBWOsIdEgnN-142">
          <mxGeometry relative="1" as="geometry">
            <Array as="points">
              <mxPoint x="791" y="423" />
            </Array>
          </mxGeometry>
        </mxCell>
        <mxCell id="qCpFgLmrSbBWOsIdEgnN-130" value="PDL&#39;s Data" style="text;html=1;align=center;verticalAlign=middle;whiteSpace=wrap;rounded=0;" vertex="1" parent="1">
          <mxGeometry x="756" y="155" width="80" height="10" as="geometry" />
        </mxCell>
        <mxCell id="qCpFgLmrSbBWOsIdEgnN-131" value="P1" style="text;html=1;align=center;verticalAlign=middle;whiteSpace=wrap;rounded=0;" vertex="1" parent="1">
          <mxGeometry x="731" y="150" width="30" height="20" as="geometry" />
        </mxCell>
        <mxCell id="qCpFgLmrSbBWOsIdEgnN-133" value="&lt;div&gt;&lt;br&gt;&lt;/div&gt;Manage Information" style="rounded=1;whiteSpace=wrap;html=1;" vertex="1" parent="1">
          <mxGeometry x="336" y="260" width="130" height="80" as="geometry" />
        </mxCell>
        <mxCell id="qCpFgLmrSbBWOsIdEgnN-134" value="" style="endArrow=classic;html=1;rounded=0;exitX=0.243;exitY=1.042;exitDx=0;exitDy=0;exitPerimeter=0;entryX=1.029;entryY=0.412;entryDx=0;entryDy=0;entryPerimeter=0;" edge="1" parent="1" source="qCpFgLmrSbBWOsIdEgnN-126" target="qCpFgLmrSbBWOsIdEgnN-133">
          <mxGeometry width="50" height="50" relative="1" as="geometry">
            <mxPoint x="823.2" y="205" as="sourcePoint" />
            <mxPoint x="729" y="290" as="targetPoint" />
            <Array as="points">
              <mxPoint x="756" y="270" />
              <mxPoint x="756" y="293" />
            </Array>
          </mxGeometry>
        </mxCell>
        <mxCell id="qCpFgLmrSbBWOsIdEgnN-135" value="&amp;nbsp;Received Input PDL Information" style="text;html=1;align=center;verticalAlign=middle;whiteSpace=wrap;rounded=0;" vertex="1" parent="1">
          <mxGeometry x="526" y="260" width="185" height="30" as="geometry" />
        </mxCell>
        <mxCell id="qCpFgLmrSbBWOsIdEgnN-136" value="" style="endArrow=none;html=1;rounded=0;entryX=1;entryY=0.25;entryDx=0;entryDy=0;exitX=0;exitY=0.25;exitDx=0;exitDy=0;" edge="1" parent="1" source="qCpFgLmrSbBWOsIdEgnN-133" target="qCpFgLmrSbBWOsIdEgnN-133">
          <mxGeometry width="50" height="50" relative="1" as="geometry">
            <mxPoint x="606" y="310" as="sourcePoint" />
            <mxPoint x="626" y="260" as="targetPoint" />
          </mxGeometry>
        </mxCell>
        <mxCell id="qCpFgLmrSbBWOsIdEgnN-137" value="" style="endArrow=classic;html=1;rounded=0;exitX=-0.005;exitY=0.396;exitDx=0;exitDy=0;entryX=0.5;entryY=1;entryDx=0;entryDy=0;exitPerimeter=0;" edge="1" parent="1" source="qCpFgLmrSbBWOsIdEgnN-133" target="qCpFgLmrSbBWOsIdEgnN-121">
          <mxGeometry width="50" height="50" relative="1" as="geometry">
            <mxPoint x="676" y="190" as="sourcePoint" />
            <mxPoint x="676" y="300" as="targetPoint" />
            <Array as="points">
              <mxPoint x="96" y="290" />
            </Array>
          </mxGeometry>
        </mxCell>
        <mxCell id="qCpFgLmrSbBWOsIdEgnN-138" value="Pdl Information" style="text;html=1;align=center;verticalAlign=middle;whiteSpace=wrap;rounded=0;" vertex="1" parent="1">
          <mxGeometry x="686" y="335" width="120" height="30" as="geometry" />
        </mxCell>
        <mxCell id="qCpFgLmrSbBWOsIdEgnN-141" value="2.0" style="text;html=1;align=center;verticalAlign=middle;whiteSpace=wrap;rounded=0;" vertex="1" parent="1">
          <mxGeometry x="381" y="260" width="40" height="20" as="geometry" />
        </mxCell>
        <mxCell id="qCpFgLmrSbBWOsIdEgnN-147" value="" style="html=1;dashed=0;whiteSpace=wrap;shape=mxgraph.dfd.dataStoreID;align=left;spacingLeft=3;points=[[0,0],[0.5,0],[1,0],[0,0.5],[1,0.5],[0,1],[0.5,1],[1,1]];" vertex="1" parent="1">
          <mxGeometry x="10" y="310" width="130" height="40" as="geometry" />
        </mxCell>
        <mxCell id="qCpFgLmrSbBWOsIdEgnN-148" value="P2" style="text;html=1;align=center;verticalAlign=middle;whiteSpace=wrap;rounded=0;" vertex="1" parent="1">
          <mxGeometry x="10" y="320" width="30" height="20" as="geometry" />
        </mxCell>
        <mxCell id="qCpFgLmrSbBWOsIdEgnN-149" value="Cell Block List" style="text;html=1;align=center;verticalAlign=middle;whiteSpace=wrap;rounded=0;" vertex="1" parent="1">
          <mxGeometry x="50" y="325" width="80" height="10" as="geometry" />
        </mxCell>
        <mxCell id="qCpFgLmrSbBWOsIdEgnN-150" style="edgeStyle=orthogonalEdgeStyle;rounded=0;orthogonalLoop=1;jettySize=auto;html=1;exitX=0.5;exitY=1;exitDx=0;exitDy=0;" edge="1" parent="1" source="qCpFgLmrSbBWOsIdEgnN-149" target="qCpFgLmrSbBWOsIdEgnN-149">
          <mxGeometry relative="1" as="geometry" />
        </mxCell>
        <mxCell id="qCpFgLmrSbBWOsIdEgnN-151" value="Cell block no.&lt;div&gt;Information&lt;/div&gt;" style="text;html=1;align=center;verticalAlign=middle;whiteSpace=wrap;rounded=0;" vertex="1" parent="1">
          <mxGeometry x="100" y="391" width="85" height="30" as="geometry" />
        </mxCell>
        <mxCell id="daOn9B80QUniVBv9NY6e-1" value="&lt;div&gt;&lt;b&gt;&lt;font style=&quot;font-size: 20px;&quot;&gt;PDL Management System&lt;/font&gt;&lt;/b&gt;&lt;/div&gt;&lt;b&gt;&lt;font style=&quot;font-size: 20px;&quot;&gt;Dataflow Diagram&lt;/font&gt;&lt;/b&gt;" style="text;html=1;align=center;verticalAlign=middle;resizable=0;points=[];autosize=1;strokeColor=none;fillColor=none;" vertex="1" parent="1">
          <mxGeometry x="290" y="30" width="270" height="60" as="geometry" />
        </mxCell>
        <mxCell id="daOn9B80QUniVBv9NY6e-2" style="edgeStyle=orthogonalEdgeStyle;rounded=0;orthogonalLoop=1;jettySize=auto;html=1;" edge="1" parent="1">
          <mxGeometry relative="1" as="geometry">
            <mxPoint x="140" y="330" as="sourcePoint" />
            <mxPoint x="331" y="330" as="targetPoint" />
          </mxGeometry>
        </mxCell>
        <mxCell id="0pxHtjlfeQTU2rFMeHyA-3" value="" style="group" vertex="1" connectable="0" parent="1">
          <mxGeometry x="626" y="380" width="130" height="85" as="geometry" />
        </mxCell>
        <mxCell id="qCpFgLmrSbBWOsIdEgnN-142" value="&lt;div&gt;&lt;br&gt;&lt;/div&gt;&lt;div&gt;&lt;br&gt;&lt;/div&gt;Receive PDL&#39;s&amp;nbsp;&lt;div&gt;Gender&lt;div&gt;&lt;/div&gt;&lt;/div&gt;" style="rounded=1;whiteSpace=wrap;html=1;" vertex="1" parent="0pxHtjlfeQTU2rFMeHyA-3">
          <mxGeometry width="130" height="85" as="geometry" />
        </mxCell>
        <mxCell id="qCpFgLmrSbBWOsIdEgnN-143" value="" style="endArrow=none;html=1;rounded=0;entryX=1;entryY=0.25;entryDx=0;entryDy=0;exitX=0;exitY=0.25;exitDx=0;exitDy=0;" edge="1" parent="0pxHtjlfeQTU2rFMeHyA-3">
          <mxGeometry width="50" height="50" relative="1" as="geometry">
            <mxPoint y="30" as="sourcePoint" />
            <mxPoint x="130" y="30" as="targetPoint" />
          </mxGeometry>
        </mxCell>
        <mxCell id="qCpFgLmrSbBWOsIdEgnN-144" value="1.0" style="text;html=1;align=center;verticalAlign=middle;whiteSpace=wrap;rounded=0;" vertex="1" parent="0pxHtjlfeQTU2rFMeHyA-3">
          <mxGeometry x="45" y="5" width="40" height="20" as="geometry" />
        </mxCell>
        <mxCell id="0pxHtjlfeQTU2rFMeHyA-5" value="" style="group" vertex="1" connectable="0" parent="1">
          <mxGeometry x="200" y="380" width="130" height="85" as="geometry" />
        </mxCell>
        <mxCell id="qCpFgLmrSbBWOsIdEgnN-164" value="&lt;div&gt;&lt;br&gt;&lt;/div&gt;&lt;div&gt;Align PDL&#39;s&amp;nbsp;&lt;/div&gt;&lt;div&gt;Gender in available cell block no.&lt;/div&gt;&lt;div&gt;&lt;div&gt;&lt;/div&gt;&lt;/div&gt;" style="rounded=1;whiteSpace=wrap;html=1;" vertex="1" parent="0pxHtjlfeQTU2rFMeHyA-5">
          <mxGeometry width="130" height="85" as="geometry" />
        </mxCell>
        <mxCell id="qCpFgLmrSbBWOsIdEgnN-165" value="" style="endArrow=none;html=1;rounded=0;entryX=1;entryY=0.25;entryDx=0;entryDy=0;exitX=0;exitY=0.25;exitDx=0;exitDy=0;" edge="1" parent="0pxHtjlfeQTU2rFMeHyA-5">
          <mxGeometry width="50" height="50" relative="1" as="geometry">
            <mxPoint y="24.549999999999955" as="sourcePoint" />
            <mxPoint x="130" y="24.549999999999955" as="targetPoint" />
          </mxGeometry>
        </mxCell>
        <mxCell id="qCpFgLmrSbBWOsIdEgnN-166" value="1.0" style="text;html=1;align=center;verticalAlign=middle;whiteSpace=wrap;rounded=0;" vertex="1" parent="0pxHtjlfeQTU2rFMeHyA-5">
          <mxGeometry x="45" y="5" width="40" height="20" as="geometry" />
        </mxCell>
        <mxCell id="xBZFs7oTA9n2M13lE338-5" style="edgeStyle=orthogonalEdgeStyle;rounded=0;orthogonalLoop=1;jettySize=auto;html=1;entryX=1;entryY=0.5;entryDx=0;entryDy=0;" edge="1" parent="1" source="xBZFs7oTA9n2M13lE338-1" target="qCpFgLmrSbBWOsIdEgnN-164">
          <mxGeometry relative="1" as="geometry" />
        </mxCell>
        <mxCell id="xBZFs7oTA9n2M13lE338-1" value="Cell block list" style="rounded=0;whiteSpace=wrap;html=1;" vertex="1" parent="1">
          <mxGeometry x="430" y="402.5" width="90" height="40" as="geometry" />
        </mxCell>
        <mxCell id="xBZFs7oTA9n2M13lE338-2" value="Pdl Information" style="text;html=1;align=center;verticalAlign=middle;whiteSpace=wrap;rounded=0;" vertex="1" parent="1">
          <mxGeometry x="151" y="260" width="120" height="30" as="geometry" />
        </mxCell>
        <mxCell id="xBZFs7oTA9n2M13lE338-3" style="edgeStyle=orthogonalEdgeStyle;rounded=0;orthogonalLoop=1;jettySize=auto;html=1;entryX=0.5;entryY=1;entryDx=0;entryDy=0;" edge="1" parent="1" source="qCpFgLmrSbBWOsIdEgnN-164" target="qCpFgLmrSbBWOsIdEgnN-147">
          <mxGeometry relative="1" as="geometry" />
        </mxCell>
        <mxCell id="xBZFs7oTA9n2M13lE338-4" style="edgeStyle=orthogonalEdgeStyle;rounded=0;orthogonalLoop=1;jettySize=auto;html=1;entryX=1;entryY=0.5;entryDx=0;entryDy=0;" edge="1" parent="1" source="qCpFgLmrSbBWOsIdEgnN-142" target="xBZFs7oTA9n2M13lE338-1">
          <mxGeometry relative="1" as="geometry" />
        </mxCell>
        <mxCell id="qCpFgLmrSbBWOsIdEgnN-168" value="PDL&#39;s&amp;nbsp;&amp;nbsp;&lt;span style=&quot;background-color: initial;&quot;&gt;Gender&lt;/span&gt;" style="text;html=1;align=center;verticalAlign=middle;whiteSpace=wrap;rounded=0;" vertex="1" parent="1">
          <mxGeometry x="520" y="395" width="110" height="30" as="geometry" />
        </mxCell>
        <mxCell id="JjsK7HhQuzaIwvMg8mRW-3" value="&lt;div&gt;Align&lt;/div&gt;Cell block no." style="text;html=1;align=center;verticalAlign=middle;whiteSpace=wrap;rounded=0;" vertex="1" parent="1">
          <mxGeometry x="330" y="391" width="120" height="30" as="geometry" />
        </mxCell>
        <mxCell id="JjsK7HhQuzaIwvMg8mRW-4" value="Cell block no.&amp;nbsp;&lt;span style=&quot;background-color: initial;&quot;&gt;Information&lt;/span&gt;" style="text;html=1;align=center;verticalAlign=middle;whiteSpace=wrap;rounded=0;" vertex="1" parent="1">
          <mxGeometry x="156" y="305" width="147.5" height="30" as="geometry" />
        </mxCell>
        <mxCell id="rUgBoCoABe73YJujFIpu-1" style="edgeStyle=orthogonalEdgeStyle;rounded=0;orthogonalLoop=1;jettySize=auto;html=1;entryX=0;entryY=0.5;entryDx=0;entryDy=0;" edge="1" parent="1" source="2ofPCP9TLDOoTOS7UCfx-1" target="Salrq4WlyT2LGbSRLl1E-3">
          <mxGeometry relative="1" as="geometry">
            <mxPoint x="260" y="524.9999999999999" as="targetPoint" />
          </mxGeometry>
        </mxCell>
        <mxCell id="2ofPCP9TLDOoTOS7UCfx-1" value="User Visitor" style="rounded=0;whiteSpace=wrap;html=1;" vertex="1" parent="1">
          <mxGeometry x="10" y="500" width="120" height="50" as="geometry" />
        </mxCell>
        <mxCell id="Salrq4WlyT2LGbSRLl1E-1" value="Input PDL Name" style="text;html=1;align=center;verticalAlign=middle;whiteSpace=wrap;rounded=0;" vertex="1" parent="1">
          <mxGeometry x="130" y="500" width="120" height="30" as="geometry" />
        </mxCell>
        <mxCell id="Salrq4WlyT2LGbSRLl1E-2" value="" style="group" vertex="1" connectable="0" parent="1">
          <mxGeometry x="270" y="482.5" width="130" height="85" as="geometry" />
        </mxCell>
        <mxCell id="Salrq4WlyT2LGbSRLl1E-3" value="&lt;div&gt;&lt;br&gt;&lt;/div&gt;&lt;div&gt;&lt;br&gt;&lt;/div&gt;Verifying PDL Name" style="rounded=1;whiteSpace=wrap;html=1;" vertex="1" parent="Salrq4WlyT2LGbSRLl1E-2">
          <mxGeometry width="130" height="85" as="geometry" />
        </mxCell>
        <mxCell id="Salrq4WlyT2LGbSRLl1E-4" value="" style="endArrow=none;html=1;rounded=0;entryX=1;entryY=0.25;entryDx=0;entryDy=0;exitX=0;exitY=0.25;exitDx=0;exitDy=0;" edge="1" parent="Salrq4WlyT2LGbSRLl1E-2">
          <mxGeometry width="50" height="50" relative="1" as="geometry">
            <mxPoint y="29.289999999999964" as="sourcePoint" />
            <mxPoint x="130" y="29.289999999999964" as="targetPoint" />
          </mxGeometry>
        </mxCell>
        <mxCell id="Salrq4WlyT2LGbSRLl1E-5" value="2.0" style="text;html=1;align=center;verticalAlign=middle;whiteSpace=wrap;rounded=0;" vertex="1" parent="Salrq4WlyT2LGbSRLl1E-2">
          <mxGeometry x="45" y="5" width="40" height="20" as="geometry" />
        </mxCell>
        <mxCell id="Salrq4WlyT2LGbSRLl1E-10" style="edgeStyle=orthogonalEdgeStyle;rounded=0;orthogonalLoop=1;jettySize=auto;html=1;entryX=0;entryY=0.5;entryDx=0;entryDy=0;" edge="1" parent="1" source="Salrq4WlyT2LGbSRLl1E-3" target="Salrq4WlyT2LGbSRLl1E-8">
          <mxGeometry relative="1" as="geometry" />
        </mxCell>
        <mxCell id="Salrq4WlyT2LGbSRLl1E-11" value="" style="group" vertex="1" connectable="0" parent="1">
          <mxGeometry x="390" y="600" width="130" height="85" as="geometry" />
        </mxCell>
        <mxCell id="Salrq4WlyT2LGbSRLl1E-12" value="&lt;div&gt;&lt;br&gt;&lt;/div&gt;&lt;div&gt;&lt;br&gt;&lt;/div&gt;Verified PDL Name" style="rounded=1;whiteSpace=wrap;html=1;" vertex="1" parent="Salrq4WlyT2LGbSRLl1E-11">
          <mxGeometry width="130" height="85" as="geometry" />
        </mxCell>
        <mxCell id="Salrq4WlyT2LGbSRLl1E-13" value="" style="endArrow=none;html=1;rounded=0;entryX=1;entryY=0.25;entryDx=0;entryDy=0;exitX=0;exitY=0.25;exitDx=0;exitDy=0;" edge="1" parent="Salrq4WlyT2LGbSRLl1E-11">
          <mxGeometry width="50" height="50" relative="1" as="geometry">
            <mxPoint y="29.289999999999964" as="sourcePoint" />
            <mxPoint x="130" y="29.289999999999964" as="targetPoint" />
          </mxGeometry>
        </mxCell>
        <mxCell id="Salrq4WlyT2LGbSRLl1E-14" value="2.0" style="text;html=1;align=center;verticalAlign=middle;whiteSpace=wrap;rounded=0;" vertex="1" parent="Salrq4WlyT2LGbSRLl1E-11">
          <mxGeometry x="45" y="5" width="40" height="20" as="geometry" />
        </mxCell>
        <mxCell id="Salrq4WlyT2LGbSRLl1E-15" value="" style="group" vertex="1" connectable="0" parent="1">
          <mxGeometry x="520" y="510" width="105" height="30" as="geometry" />
        </mxCell>
        <mxCell id="Salrq4WlyT2LGbSRLl1E-6" value="" style="html=1;dashed=0;whiteSpace=wrap;shape=mxgraph.dfd.dataStoreID;align=left;spacingLeft=3;points=[[0,0],[0.5,0],[1,0],[0,0.5],[1,0.5],[0,1],[0.5,1],[1,1]];" vertex="1" parent="Salrq4WlyT2LGbSRLl1E-15">
          <mxGeometry width="100" height="30" as="geometry" />
        </mxCell>
        <mxCell id="Salrq4WlyT2LGbSRLl1E-7" value="PDL&#39;s Data" style="text;html=1;align=center;verticalAlign=middle;whiteSpace=wrap;rounded=0;" vertex="1" parent="Salrq4WlyT2LGbSRLl1E-15">
          <mxGeometry x="25" y="10" width="80" height="10" as="geometry" />
        </mxCell>
        <mxCell id="Salrq4WlyT2LGbSRLl1E-8" value="P1" style="text;html=1;align=center;verticalAlign=middle;whiteSpace=wrap;rounded=0;" vertex="1" parent="Salrq4WlyT2LGbSRLl1E-15">
          <mxGeometry y="5" width="30" height="20" as="geometry" />
        </mxCell>
        <mxCell id="Salrq4WlyT2LGbSRLl1E-16" value="Received PDL Name" style="text;html=1;align=center;verticalAlign=middle;whiteSpace=wrap;rounded=0;" vertex="1" parent="1">
          <mxGeometry x="400" y="490" width="110" height="30" as="geometry" />
        </mxCell>
        <mxCell id="i0mAANBfmL2ynJpMNWam-1" style="edgeStyle=orthogonalEdgeStyle;rounded=0;orthogonalLoop=1;jettySize=auto;html=1;entryX=1;entryY=0.5;entryDx=0;entryDy=0;exitX=0.5;exitY=1;exitDx=0;exitDy=0;" edge="1" parent="1" source="Salrq4WlyT2LGbSRLl1E-6" target="Salrq4WlyT2LGbSRLl1E-12">
          <mxGeometry relative="1" as="geometry" />
        </mxCell>
        <mxCell id="i0mAANBfmL2ynJpMNWam-3" value="Verify PDL Name" style="text;html=1;align=center;verticalAlign=middle;whiteSpace=wrap;rounded=0;" vertex="1" parent="1">
          <mxGeometry x="565" y="580" width="110" height="30" as="geometry" />
        </mxCell>
        <mxCell id="fsJsoAULviUi8sZwiMM5-1" value="Input Schedule" style="text;html=1;align=center;verticalAlign=middle;whiteSpace=wrap;rounded=0;" vertex="1" parent="1">
          <mxGeometry x="280" y="620" width="110" height="30" as="geometry" />
        </mxCell>
        <mxCell id="ahAkptbhsqFyOeWJehPi-1" value="" style="group" vertex="1" connectable="0" parent="1">
          <mxGeometry x="151" y="625.5" width="120" height="30" as="geometry" />
        </mxCell>
        <mxCell id="ahAkptbhsqFyOeWJehPi-2" value="" style="html=1;dashed=0;whiteSpace=wrap;shape=mxgraph.dfd.dataStoreID;align=left;spacingLeft=3;points=[[0,0],[0.5,0],[1,0],[0,0.5],[1,0.5],[0,1],[0.5,1],[1,1]];" vertex="1" parent="ahAkptbhsqFyOeWJehPi-1">
          <mxGeometry width="100" height="30" as="geometry" />
        </mxCell>
        <mxCell id="ahAkptbhsqFyOeWJehPi-3" value="Schedule Data" style="text;html=1;align=center;verticalAlign=middle;whiteSpace=wrap;rounded=0;" vertex="1" parent="ahAkptbhsqFyOeWJehPi-1">
          <mxGeometry x="25" y="10" width="95" height="10" as="geometry" />
        </mxCell>
        <mxCell id="ahAkptbhsqFyOeWJehPi-4" value="P3" style="text;html=1;align=center;verticalAlign=middle;whiteSpace=wrap;rounded=0;" vertex="1" parent="ahAkptbhsqFyOeWJehPi-1">
          <mxGeometry y="5" width="30" height="20" as="geometry" />
        </mxCell>
        <mxCell id="ahAkptbhsqFyOeWJehPi-5" style="edgeStyle=orthogonalEdgeStyle;rounded=0;orthogonalLoop=1;jettySize=auto;html=1;entryX=1;entryY=0.75;entryDx=0;entryDy=0;" edge="1" parent="1" source="Salrq4WlyT2LGbSRLl1E-12" target="ahAkptbhsqFyOeWJehPi-3">
          <mxGeometry relative="1" as="geometry" />
        </mxCell>
        <mxCell id="ahAkptbhsqFyOeWJehPi-7" style="edgeStyle=orthogonalEdgeStyle;rounded=0;orthogonalLoop=1;jettySize=auto;html=1;entryX=0.5;entryY=1;entryDx=0;entryDy=0;" edge="1" parent="1" source="ahAkptbhsqFyOeWJehPi-4" target="2ofPCP9TLDOoTOS7UCfx-1">
          <mxGeometry relative="1" as="geometry" />
        </mxCell>
        <mxCell id="ahAkptbhsqFyOeWJehPi-8" value="Appointment Information" style="text;html=1;align=center;verticalAlign=middle;whiteSpace=wrap;rounded=0;" vertex="1" parent="1">
          <mxGeometry x="69" y="580" width="150" height="30" as="geometry" />
        </mxCell>
        <mxCell id="ru51LpwMUWMo8xDGZ1Lk-1" value="" style="group" vertex="1" connectable="0" parent="1">
          <mxGeometry x="21" y="717.5" width="130" height="85" as="geometry" />
        </mxCell>
        <mxCell id="ru51LpwMUWMo8xDGZ1Lk-2" value="&lt;div&gt;&lt;br&gt;&lt;/div&gt;&lt;div&gt;&lt;br&gt;&lt;/div&gt;Appointment Information" style="rounded=1;whiteSpace=wrap;html=1;" vertex="1" parent="ru51LpwMUWMo8xDGZ1Lk-1">
          <mxGeometry width="130" height="85" as="geometry" />
        </mxCell>
        <mxCell id="ru51LpwMUWMo8xDGZ1Lk-3" value="" style="endArrow=none;html=1;rounded=0;entryX=1;entryY=0.25;entryDx=0;entryDy=0;exitX=0;exitY=0.25;exitDx=0;exitDy=0;" edge="1" parent="ru51LpwMUWMo8xDGZ1Lk-1">
          <mxGeometry width="50" height="50" relative="1" as="geometry">
            <mxPoint y="29.289999999999964" as="sourcePoint" />
            <mxPoint x="130" y="29.289999999999964" as="targetPoint" />
          </mxGeometry>
        </mxCell>
        <mxCell id="ru51LpwMUWMo8xDGZ1Lk-4" value="2.0" style="text;html=1;align=center;verticalAlign=middle;whiteSpace=wrap;rounded=0;" vertex="1" parent="ru51LpwMUWMo8xDGZ1Lk-1">
          <mxGeometry x="45" y="5" width="40" height="20" as="geometry" />
        </mxCell>
        <mxCell id="6KJLEfUEkI3qndiMTOnf-5" style="edgeStyle=orthogonalEdgeStyle;rounded=0;orthogonalLoop=1;jettySize=auto;html=1;entryX=0;entryY=0.5;entryDx=0;entryDy=0;" edge="1" parent="1" source="ru51LpwMUWMo8xDGZ1Lk-5" target="6KJLEfUEkI3qndiMTOnf-2">
          <mxGeometry relative="1" as="geometry" />
        </mxCell>
        <mxCell id="ru51LpwMUWMo8xDGZ1Lk-5" value="Visitors List" style="rounded=0;whiteSpace=wrap;html=1;" vertex="1" parent="1">
          <mxGeometry x="303.5" y="740" width="90" height="40" as="geometry" />
        </mxCell>
        <mxCell id="ru51LpwMUWMo8xDGZ1Lk-6" value="" style="edgeStyle=orthogonalEdgeStyle;rounded=0;orthogonalLoop=1;jettySize=auto;html=1;exitX=0.5;exitY=1;exitDx=0;exitDy=0;" edge="1" parent="1" source="ahAkptbhsqFyOeWJehPi-2" target="ru51LpwMUWMo8xDGZ1Lk-2">
          <mxGeometry relative="1" as="geometry" />
        </mxCell>
        <mxCell id="ru51LpwMUWMo8xDGZ1Lk-7" style="edgeStyle=orthogonalEdgeStyle;rounded=0;orthogonalLoop=1;jettySize=auto;html=1;entryX=0;entryY=0.5;entryDx=0;entryDy=0;" edge="1" parent="1" source="ru51LpwMUWMo8xDGZ1Lk-2" target="ru51LpwMUWMo8xDGZ1Lk-5">
          <mxGeometry relative="1" as="geometry" />
        </mxCell>
        <mxCell id="3CnXl1iH54qnnUmWgWbn-1" value="Appointment Information" style="text;html=1;align=center;verticalAlign=middle;whiteSpace=wrap;rounded=0;" vertex="1" parent="1">
          <mxGeometry x="36" y="655.5" width="150" height="30" as="geometry" />
        </mxCell>
        <mxCell id="nMAgIjddyOFOWOhTXhJS-2" value="Visitor Information" style="text;html=1;align=center;verticalAlign=middle;whiteSpace=wrap;rounded=0;" vertex="1" parent="1">
          <mxGeometry x="151" y="730" width="150" height="30" as="geometry" />
        </mxCell>
        <mxCell id="6KJLEfUEkI3qndiMTOnf-1" value="" style="group" vertex="1" connectable="0" parent="1">
          <mxGeometry x="525" y="717.5" width="130" height="85" as="geometry" />
        </mxCell>
        <mxCell id="6KJLEfUEkI3qndiMTOnf-2" value="&lt;div&gt;&lt;br&gt;&lt;/div&gt;&lt;div&gt;&lt;br&gt;&lt;/div&gt;List of Appointments" style="rounded=1;whiteSpace=wrap;html=1;" vertex="1" parent="6KJLEfUEkI3qndiMTOnf-1">
          <mxGeometry width="130" height="85" as="geometry" />
        </mxCell>
        <mxCell id="6KJLEfUEkI3qndiMTOnf-3" value="" style="endArrow=none;html=1;rounded=0;entryX=1;entryY=0.25;entryDx=0;entryDy=0;exitX=0;exitY=0.25;exitDx=0;exitDy=0;" edge="1" parent="6KJLEfUEkI3qndiMTOnf-1">
          <mxGeometry width="50" height="50" relative="1" as="geometry">
            <mxPoint y="29.289999999999964" as="sourcePoint" />
            <mxPoint x="130" y="29.289999999999964" as="targetPoint" />
          </mxGeometry>
        </mxCell>
        <mxCell id="6KJLEfUEkI3qndiMTOnf-4" value="2.0" style="text;html=1;align=center;verticalAlign=middle;whiteSpace=wrap;rounded=0;" vertex="1" parent="6KJLEfUEkI3qndiMTOnf-1">
          <mxGeometry x="45" y="5" width="40" height="20" as="geometry" />
        </mxCell>
        <mxCell id="6KJLEfUEkI3qndiMTOnf-6" value="Schedule Information" style="text;html=1;align=center;verticalAlign=middle;whiteSpace=wrap;rounded=0;" vertex="1" parent="1">
          <mxGeometry x="381" y="730" width="150" height="30" as="geometry" />
        </mxCell>
        <mxCell id="vxneF-UTYl35OL8qrAgE-2" value="" style="group" vertex="1" connectable="0" parent="1">
          <mxGeometry x="380" y="840" width="120" height="30" as="geometry" />
        </mxCell>
        <mxCell id="vxneF-UTYl35OL8qrAgE-3" value="" style="html=1;dashed=0;whiteSpace=wrap;shape=mxgraph.dfd.dataStoreID;align=left;spacingLeft=3;points=[[0,0],[0.5,0],[1,0],[0,0.5],[1,0.5],[0,1],[0.5,1],[1,1]];" vertex="1" parent="vxneF-UTYl35OL8qrAgE-2">
          <mxGeometry width="100" height="30" as="geometry" />
        </mxCell>
        <mxCell id="vxneF-UTYl35OL8qrAgE-4" value="Schedule Data" style="text;html=1;align=center;verticalAlign=middle;whiteSpace=wrap;rounded=0;" vertex="1" parent="vxneF-UTYl35OL8qrAgE-2">
          <mxGeometry x="25" y="10" width="95" height="10" as="geometry" />
        </mxCell>
        <mxCell id="vxneF-UTYl35OL8qrAgE-5" value="P3" style="text;html=1;align=center;verticalAlign=middle;whiteSpace=wrap;rounded=0;" vertex="1" parent="vxneF-UTYl35OL8qrAgE-2">
          <mxGeometry y="5" width="30" height="20" as="geometry" />
        </mxCell>
        <mxCell id="vxneF-UTYl35OL8qrAgE-6" style="edgeStyle=orthogonalEdgeStyle;rounded=0;orthogonalLoop=1;jettySize=auto;html=1;entryX=1;entryY=0.5;entryDx=0;entryDy=0;exitX=0.5;exitY=1;exitDx=0;exitDy=0;" edge="1" parent="1" source="6KJLEfUEkI3qndiMTOnf-2" target="vxneF-UTYl35OL8qrAgE-4">
          <mxGeometry relative="1" as="geometry" />
        </mxCell>
        <mxCell id="Vj0I3Mmj4545BHvaPoen-1" value="Received Visitor Information" style="text;html=1;align=center;verticalAlign=middle;whiteSpace=wrap;rounded=0;" vertex="1" parent="1">
          <mxGeometry x="506" y="860" width="120" height="30" as="geometry" />
        </mxCell>
        <mxCell id="oJzMRPo_rAwtYL7-BMOs-1" style="edgeStyle=orthogonalEdgeStyle;rounded=0;orthogonalLoop=1;jettySize=auto;html=1;entryX=0.5;entryY=1;entryDx=0;entryDy=0;exitX=0;exitY=0.5;exitDx=0;exitDy=0;" edge="1" parent="1" source="vxneF-UTYl35OL8qrAgE-5" target="ru51LpwMUWMo8xDGZ1Lk-5">
          <mxGeometry relative="1" as="geometry" />
        </mxCell>
        <mxCell id="oJzMRPo_rAwtYL7-BMOs-2" value="Schedule List" style="text;html=1;align=center;verticalAlign=middle;whiteSpace=wrap;rounded=0;" vertex="1" parent="1">
          <mxGeometry x="310" y="802.5" width="150" height="30" as="geometry" />
        </mxCell>
      </root>
    </mxGraphModel>
  </diagram>
  <diagram id="bsFdEYWkheBdI4KM1YNj" name="Page-2">
    <mxGraphModel dx="406" dy="644" grid="1" gridSize="10" guides="1" tooltips="1" connect="1" arrows="1" fold="1" page="1" pageScale="1" pageWidth="827" pageHeight="1169" math="0" shadow="0">
      <root>
        <mxCell id="0" />
        <mxCell id="1" parent="0" />
        <mxCell id="2gGNoEcB4Un3AVsp1BCF-1" value="&lt;div&gt;&lt;br&gt;&lt;/div&gt;Liberty Link: PDL INFORMATION MANAGEMENT SYSTEM" style="rounded=1;whiteSpace=wrap;html=1;" vertex="1" parent="1">
          <mxGeometry x="1175" y="260" width="160" height="130" as="geometry" />
        </mxCell>
        <mxCell id="2gGNoEcB4Un3AVsp1BCF-2" value="" style="endArrow=none;html=1;rounded=0;exitX=0;exitY=0.25;exitDx=0;exitDy=0;entryX=1;entryY=0.25;entryDx=0;entryDy=0;" edge="1" parent="1" source="2gGNoEcB4Un3AVsp1BCF-1" target="2gGNoEcB4Un3AVsp1BCF-1">
          <mxGeometry width="50" height="50" relative="1" as="geometry">
            <mxPoint x="1250" y="640" as="sourcePoint" />
            <mxPoint x="1300" y="590" as="targetPoint" />
          </mxGeometry>
        </mxCell>
        <mxCell id="2gGNoEcB4Un3AVsp1BCF-3" value="0" style="text;html=1;align=center;verticalAlign=middle;whiteSpace=wrap;rounded=0;" vertex="1" parent="1">
          <mxGeometry x="1225" y="260" width="60" height="30" as="geometry" />
        </mxCell>
        <mxCell id="2gGNoEcB4Un3AVsp1BCF-4" value="Admin" style="rounded=0;whiteSpace=wrap;html=1;" vertex="1" parent="1">
          <mxGeometry x="990" y="180" width="90" height="40" as="geometry" />
        </mxCell>
        <mxCell id="2gGNoEcB4Un3AVsp1BCF-5" value="User Visitor" style="rounded=0;whiteSpace=wrap;html=1;" vertex="1" parent="1">
          <mxGeometry x="1510" y="410" width="90" height="40" as="geometry" />
        </mxCell>
        <mxCell id="2gGNoEcB4Un3AVsp1BCF-6" value="Input PDL Information" style="text;html=1;align=center;verticalAlign=middle;whiteSpace=wrap;rounded=0;" vertex="1" parent="1">
          <mxGeometry x="1105" y="160" width="120" height="30" as="geometry" />
        </mxCell>
        <mxCell id="2gGNoEcB4Un3AVsp1BCF-7" value="" style="endArrow=classic;html=1;rounded=0;entryX=0.5;entryY=1;entryDx=0;entryDy=0;exitX=0.002;exitY=0.315;exitDx=0;exitDy=0;exitPerimeter=0;" edge="1" parent="1" source="2gGNoEcB4Un3AVsp1BCF-1" target="2gGNoEcB4Un3AVsp1BCF-4">
          <mxGeometry width="50" height="50" relative="1" as="geometry">
            <mxPoint x="1170" y="300" as="sourcePoint" />
            <mxPoint x="1270" y="330" as="targetPoint" />
            <Array as="points">
              <mxPoint x="1035" y="300" />
            </Array>
          </mxGeometry>
        </mxCell>
        <mxCell id="2gGNoEcB4Un3AVsp1BCF-8" value="Pdl Information" style="text;html=1;align=center;verticalAlign=middle;whiteSpace=wrap;rounded=0;" vertex="1" parent="1">
          <mxGeometry x="1050" y="270" width="120" height="30" as="geometry" />
        </mxCell>
        <mxCell id="2gGNoEcB4Un3AVsp1BCF-9" value="" style="endArrow=classic;html=1;rounded=0;entryX=0.551;entryY=0.019;entryDx=0;entryDy=0;entryPerimeter=0;exitX=1.002;exitY=0.606;exitDx=0;exitDy=0;exitPerimeter=0;" edge="1" parent="1" source="2gGNoEcB4Un3AVsp1BCF-1" target="2gGNoEcB4Un3AVsp1BCF-5">
          <mxGeometry width="50" height="50" relative="1" as="geometry">
            <mxPoint x="1220" y="380" as="sourcePoint" />
            <mxPoint x="1560.94" y="401.52" as="targetPoint" />
            <Array as="points">
              <mxPoint x="1560" y="340" />
            </Array>
          </mxGeometry>
        </mxCell>
        <mxCell id="2gGNoEcB4Un3AVsp1BCF-10" value="Appointment Information" style="text;html=1;align=center;verticalAlign=middle;whiteSpace=wrap;rounded=0;" vertex="1" parent="1">
          <mxGeometry x="1360" y="310" width="180" height="30" as="geometry" />
        </mxCell>
        <mxCell id="2gGNoEcB4Un3AVsp1BCF-13" value="Cell block list" style="rounded=0;whiteSpace=wrap;html=1;" vertex="1" parent="1">
          <mxGeometry x="1440" y="130" width="90" height="40" as="geometry" />
        </mxCell>
        <mxCell id="2gGNoEcB4Un3AVsp1BCF-14" value="" style="endArrow=classic;html=1;rounded=0;exitX=1;exitY=0;exitDx=0;exitDy=0;entryX=0;entryY=0.5;entryDx=0;entryDy=0;" edge="1" parent="1" source="2gGNoEcB4Un3AVsp1BCF-3" target="2gGNoEcB4Un3AVsp1BCF-13">
          <mxGeometry width="50" height="50" relative="1" as="geometry">
            <mxPoint x="1280" y="250" as="sourcePoint" />
            <mxPoint x="1360" y="160" as="targetPoint" />
            <Array as="points">
              <mxPoint x="1285" y="150" />
            </Array>
          </mxGeometry>
        </mxCell>
        <mxCell id="2gGNoEcB4Un3AVsp1BCF-15" value="" style="endArrow=classic;html=1;rounded=0;entryX=0.998;entryY=0.23;entryDx=0;entryDy=0;entryPerimeter=0;" edge="1" parent="1" target="2gGNoEcB4Un3AVsp1BCF-1">
          <mxGeometry width="50" height="50" relative="1" as="geometry">
            <mxPoint x="1470" y="170" as="sourcePoint" />
            <mxPoint x="1290" y="230" as="targetPoint" />
            <Array as="points">
              <mxPoint x="1470" y="290" />
            </Array>
          </mxGeometry>
        </mxCell>
        <mxCell id="2gGNoEcB4Un3AVsp1BCF-16" value="&lt;div&gt;Align&lt;/div&gt;Cell block no." style="text;html=1;align=center;verticalAlign=middle;whiteSpace=wrap;rounded=0;" vertex="1" parent="1">
          <mxGeometry x="1340" y="260" width="120" height="30" as="geometry" />
        </mxCell>
        <mxCell id="2gGNoEcB4Un3AVsp1BCF-17" value="PDL&#39;s Gender" style="text;html=1;align=center;verticalAlign=middle;whiteSpace=wrap;rounded=0;" vertex="1" parent="1">
          <mxGeometry x="1285" y="120" width="120" height="30" as="geometry" />
        </mxCell>
        <mxCell id="2gGNoEcB4Un3AVsp1BCF-18" value="Visitor List" style="rounded=0;whiteSpace=wrap;html=1;" vertex="1" parent="1">
          <mxGeometry x="920" y="420" width="90" height="40" as="geometry" />
        </mxCell>
        <mxCell id="2gGNoEcB4Un3AVsp1BCF-19" value="" style="endArrow=classic;html=1;rounded=0;exitX=0.575;exitY=-0.084;exitDx=0;exitDy=0;exitPerimeter=0;entryX=0.011;entryY=0.685;entryDx=0;entryDy=0;entryPerimeter=0;" edge="1" parent="1" source="2gGNoEcB4Un3AVsp1BCF-18" target="2gGNoEcB4Un3AVsp1BCF-1">
          <mxGeometry width="50" height="50" relative="1" as="geometry">
            <mxPoint x="1010" y="400" as="sourcePoint" />
            <mxPoint x="1170" y="350" as="targetPoint" />
            <Array as="points">
              <mxPoint x="972" y="350" />
            </Array>
          </mxGeometry>
        </mxCell>
        <mxCell id="2gGNoEcB4Un3AVsp1BCF-20" value="Visitor Information" style="text;html=1;align=center;verticalAlign=middle;whiteSpace=wrap;rounded=0;" vertex="1" parent="1">
          <mxGeometry x="1050" y="410" width="120" height="30" as="geometry" />
        </mxCell>
        <mxCell id="2gGNoEcB4Un3AVsp1BCF-21" value="" style="endArrow=classic;html=1;rounded=0;entryX=1;entryY=0.5;entryDx=0;entryDy=0;exitX=0.25;exitY=1;exitDx=0;exitDy=0;" edge="1" parent="1" source="2gGNoEcB4Un3AVsp1BCF-1" target="2gGNoEcB4Un3AVsp1BCF-18">
          <mxGeometry width="50" height="50" relative="1" as="geometry">
            <mxPoint x="1060" y="500" as="sourcePoint" />
            <mxPoint x="1110" y="450" as="targetPoint" />
            <Array as="points">
              <mxPoint x="1215" y="440" />
            </Array>
          </mxGeometry>
        </mxCell>
        <mxCell id="2gGNoEcB4Un3AVsp1BCF-22" value="Schedule List" style="text;html=1;align=center;verticalAlign=middle;whiteSpace=wrap;rounded=0;" vertex="1" parent="1">
          <mxGeometry x="1010" y="320" width="120" height="30" as="geometry" />
        </mxCell>
        <mxCell id="2gGNoEcB4Un3AVsp1BCF-23" value="" style="endArrow=classic;html=1;rounded=0;entryX=0.167;entryY=-0.093;entryDx=0;entryDy=0;exitX=1;exitY=0.25;exitDx=0;exitDy=0;entryPerimeter=0;" edge="1" parent="1" source="2gGNoEcB4Un3AVsp1BCF-4" target="2gGNoEcB4Un3AVsp1BCF-3">
          <mxGeometry width="50" height="50" relative="1" as="geometry">
            <mxPoint x="1185" y="311" as="sourcePoint" />
            <mxPoint x="1045" y="230" as="targetPoint" />
            <Array as="points">
              <mxPoint x="1235" y="190" />
            </Array>
          </mxGeometry>
        </mxCell>
        <mxCell id="Y8smHvka27RBhwbiXLos-3" style="edgeStyle=orthogonalEdgeStyle;rounded=0;orthogonalLoop=1;jettySize=auto;html=1;entryX=0.696;entryY=1.012;entryDx=0;entryDy=0;entryPerimeter=0;" edge="1" parent="1" target="2gGNoEcB4Un3AVsp1BCF-1">
          <mxGeometry relative="1" as="geometry">
            <mxPoint x="1510" y="440" as="sourcePoint" />
            <Array as="points">
              <mxPoint x="1286" y="440" />
            </Array>
          </mxGeometry>
        </mxCell>
        <mxCell id="Y8smHvka27RBhwbiXLos-4" value="Input PDL Name" style="text;html=1;align=center;verticalAlign=middle;whiteSpace=wrap;rounded=0;" vertex="1" parent="1">
          <mxGeometry x="1335" y="410" width="120" height="30" as="geometry" />
        </mxCell>
        <mxCell id="e7H2PCuPojHmyTHVZfqP-1" value="&lt;div&gt;&lt;b&gt;&lt;font style=&quot;font-size: 20px;&quot;&gt;PDL Management System&lt;/font&gt;&lt;/b&gt;&lt;/div&gt;&lt;b&gt;&lt;font style=&quot;font-size: 20px;&quot;&gt;Dataflow Diagram&lt;/font&gt;&lt;/b&gt;" style="text;html=1;align=center;verticalAlign=middle;resizable=0;points=[];autosize=1;strokeColor=none;fillColor=none;" vertex="1" parent="1">
          <mxGeometry x="1120" y="28" width="270" height="60" as="geometry" />
        </mxCell>
      </root>
    </mxGraphModel>
  </diagram>
</mxfile>
